<svg id="eVzHup4USFn1" xmlns="http://www.w3.org/2000/svg" xmlns:xlink="http://www.w3.org/1999/xlink" viewBox="0 0 120.01 120" shape-rendering="geometricPrecision" text-rendering="geometricPrecision">
<style><![CDATA[
#eVzHup4USFn3_ts {animation: eVzHup4USFn3_ts__ts 2500ms linear infinite normal forwards}@keyframes eVzHup4USFn3_ts__ts { 0% {transform: translate(61.309452px,61.304067px) scale(0.45045,0.45045)} 60% {transform: translate(61.309452px,61.304067px) scale(0.630893,0.630893)} 100% {transform: translate(61.309452px,61.304067px) scale(0.630893,0.630893)}} #eVzHup4USFn3 {animation: eVzHup4USFn3_c_o 2500ms linear infinite normal forwards}@keyframes eVzHup4USFn3_c_o { 0% {opacity: 1} 60% {opacity: 0} 100% {opacity: 0}}
]]></style>
<path d="M58.42,7.11h3.84c7.94.36,15.7,2.48,22.73,6.2C97.2,19.84,106.38,30.9,110.55,44.1c1.1,3.5,1.82,7.1,2.15,10.75.2,2.86.24,5.74.15,8.61-.49,8.11-2.87,15.99-6.95,23.02-9.06,15.71-25.55,25.68-43.67,26.42h-4.37c-2.22-.13-4.44-.37-6.64-.72C26.56,108.03,8.2,87.15,7.23,62.17c-.16-1.57-.15-3.16.02-4.73-.03-1.45.25-2.88.3-4.32l.11-.13c1.88-14.44,9.67-27.46,21.49-35.95c8.56-6.13,18.75-9.58,29.28-9.92M55.3,12.23c-.56.11-1.13.19-1.71.22-.85.18-1.72.26-2.57.44-.35.09-.71.15-1.06.22-.29.08-.58.14-.87.2-.85.22-1.71.42-2.54.72-.12.03-.35.09-.48.11-.22.08-.43.16-.65.24l-.65.19c-.11.07-.22.15-.33.22.19.37.37.75.53,1.14.25.56.5,1.12.75,1.67.31.73.65,1.46.95,2.2.29.64.59,1.28.86,1.93.56,1.2,1.07,2.42,1.62,3.61c2.68,6.04,5.4,12.06,8.08,18.1.28.65.58,1.28.86,1.93s.58,1.29.86,1.93c.21.72.59,1.38,1.11,1.92.48-.48.83-1.08,1.01-1.74.32-.7.63-1.4.94-2.11c2.91-6.54,5.86-13.07,8.76-19.61.28-.65.58-1.29.86-1.93s.58-1.29.86-1.93.57-1.29.86-1.94c.31-.71.62-1.41.93-2.11.28-.65.58-1.29.85-1.94.18-.39.36-.79.56-1.17-.33-.13-.66-.27-.99-.4-.22-.07-.44-.14-.66-.22L73.56,14c-.83-.29-1.69-.48-2.53-.72-.65-.12-1.29-.27-1.92-.44-.86-.14-1.72-.26-2.58-.43-.58-.03-1.15-.1-1.72-.21-1.07-.1-2.16-.04-3.22-.22-2.12-.11-4.21.14-6.32.23M36.29,18.36c-6.59,3.91-12.21,9.26-16.44,15.65.14.51.34,1,.61,1.46.32.63.63,1.27.94,1.91.35.72.71,1.43,1.08,2.14c3.75,7.62,7.58,15.19,11.31,22.82.11.2.21.4.31.6.43.86.86,1.73,1.27,2.6c2.94,5.93,5.88,11.85,8.83,17.77.12.34.45.55.81.52.33-.61.63-1.24.9-1.88.24-.59.5-1.17.76-1.76.25-.56.48-1.12.73-1.68.25-.59.52-1.17.76-1.76.25-.55.49-1.12.74-1.67c1.87-4.31,3.76-8.61,5.66-12.91.19-.49.67-.79,1.19-.75c2.87,0,5.74,0,8.61,0c.55-.03,1.05.31,1.22.84c1.87,4.27,3.76,8.54,5.61,12.82.25.56.49,1.12.74,1.67.24.59.51,1.17.76,1.76.25.56.48,1.12.72,1.69.55,1.19.99,2.44,1.64,3.59l.53.02c2.38-4.57,4.62-9.22,6.94-13.83c5.15-10.45,10.35-20.87,15.53-31.29.4-.76.74-1.55,1.15-2.31.32-.76.71-1.49,1.16-2.18-.43-.53-.8-1.11-1.19-1.67C95.1,26.8,89.86,21.98,83.81,18.4c-.22-.14-.47-.24-.73-.3-2.67,5.88-5.32,11.76-7.96,17.65-.34.79-.71,1.56-1.05,2.35-.25.56-.5,1.12-.77,1.68-.31.74-.65,1.46-.96,2.2-.32.7-.64,1.4-.95,2.11-1.82,4.06-3.64,8.12-5.47,12.17-.17.45-.39.88-.65,1.28-.39.3-.88.43-1.36.37-2.66,0-5.32,0-7.98,0-.58.08-1.14-.23-1.38-.76-1.97-4.35-3.93-8.7-5.88-13.05-.31-.71-.63-1.41-.95-2.11-.31-.74-.65-1.46-.98-2.19-.31-.71-.62-1.41-.94-2.12-2.9-6.55-5.91-13.06-8.8-19.62-.24.11-.49.21-.72.34m68.54,24.89c-.96,2.1-2.05,4.14-3.05,6.22-.29.57-.58,1.15-.86,1.72s-.57,1.15-.84,1.72l-.33.62c-.1.22-.2.44-.31.66l-.22.44c-.11.2-.21.41-.32.62-.17.38-.35.75-.53,1.12-3.51,7.1-7.08,14.16-10.58,21.26l-.21.43c-.15.28-.29.57-.43.86s-.29.57-.42.86-.29.57-.42.86c-.05.11-.16.32-.21.43-.1.2-.21.4-.31.6-.35.72-.71,1.43-1.06,2.15-2.63,5.37-5.31,10.7-7.99,16.04-.34.86-1.31,1.28-2.17.95-.08-.03-.16-.07-.23-.11-.88-.62-1.1-1.76-1.55-2.68-.32-.7-.64-1.4-.94-2.11-3.18-7.19-6.41-14.36-9.61-21.55-.28-.65-.58-1.29-.86-1.94-.29-.65-.59-1.29-.83-1.96-.15-.29-.5-.4-.79-.25-.01,0-.02.01-.03.02-.42.8-.79,1.62-1.12,2.46-3.23,7.24-6.49,14.47-9.69,21.73-.25.55-.51,1.11-.76,1.67-.31.74-.65,1.46-.96,2.19-.26.66-.57,1.3-.92,1.92-.43.63-1.23.89-1.95.64-.49-.22-.87-.62-1.07-1.11-2.67-5.36-5.37-10.71-8.01-16.08-.14-.29-.28-.57-.42-.86-.28-.58-.56-1.15-.85-1.72-.05-.11-.16-.32-.21-.43-.14-.29-.28-.57-.43-.85s-.28-.57-.43-.86c-.11-.23-.21-.46-.32-.69-.18-.34-.35-.69-.53-1.03-.21-.43-.42-.86-.65-1.29-3.49-7.11-7.1-14.17-10.58-21.29-.05-.11-.16-.33-.21-.43-.24-.51-.5-1.02-.75-1.53-.26-.49-.49-.99-.75-1.47-.1-.23-.2-.46-.3-.68-.11-.2-.22-.4-.32-.6-1.08-2.19-2.15-4.37-3.25-6.55-.36.69-.64,1.41-.84,2.16-3.84,12.07-2.71,25.16,3.14,36.39.02.06.06.18.09.23.55.96,1.07,1.94,1.66,2.87c5.27,8.55,13.05,15.26,22.28,19.22.36.14.72.29,1.08.43.26.11.53.21.79.32.31.1.62.22.92.32.22.08.43.16.65.23s.43.14.65.2c.55.18,1.11.32,1.66.49.86.23,1.72.44,2.58.64.35.06.72.13,1.07.21s.72.14,1.08.23c1.72.28,3.46.46,5.2.54c1.78.19,3.58.2,5.36.01c1.81-.07,3.62-.26,5.4-.57.36-.09.72-.15,1.09-.21.35-.09.71-.15,1.08-.21.86-.21,1.72-.41,2.58-.64.55-.18,1.11-.32,1.66-.5.22-.08.44-.16.66-.23.11-.03.34-.09.45-.12.64-.24,1.28-.47,1.91-.72.35-.15.72-.29,1.08-.44c12.8-5.5,22.63-16.21,27.02-29.43c3.41-10.29,3.16-21.44-.69-31.56v0l-.03.02Z" transform="matrix(.623619 0 0 0.623619 22.584291 22.579741)" fill="#fff"/><g id="eVzHup4USFn3_ts" transform="translate(61.309452,61.304067) scale(0.45045,0.45045)"><ellipse id="eVzHup4USFn3" rx="69.742413" ry="69.742413" transform="translate(-2.067627,-2.067017)" fill="none" stroke="#fff" stroke-width="3"/></g></svg>
